<svg width="35" height="34" viewBox="0 0 35 34" fill="none" xmlns="http://www.w3.org/2000/svg">
<g clip-path="url(#clip0_211_2332)">
<path d="M12.4102 6.38666C14.0518 6.38676 15.6539 6.89176 16.999 7.83295C18.3443 8.77426 19.3672 10.1069 19.9297 11.6494C20.4922 13.1918 20.5669 14.8697 20.1436 16.456C19.7201 18.0423 18.8189 19.4606 17.5625 20.5175L17.1396 20.873L17.6436 21.1005C19.7131 22.0371 21.4937 23.5112 22.8008 25.3691L22.8057 25.3759L22.8115 25.3828C22.9131 25.5128 22.9872 25.6626 23.0293 25.8222C23.0713 25.9817 23.0799 26.1483 23.0557 26.3115C23.0314 26.4746 22.9742 26.631 22.8877 26.7714C22.8012 26.9118 22.6876 27.0339 22.5527 27.1288C22.4179 27.2238 22.2648 27.29 22.1035 27.3242C21.9421 27.3583 21.7751 27.3593 21.6133 27.3271C21.4514 27.2949 21.2972 27.2301 21.1611 27.1367H21.1621C21.0261 27.0433 20.9095 26.9236 20.8213 26.7841L20.8174 26.7773L20.8125 26.7704L20.6309 26.5204C19.7068 25.2851 18.5157 24.2722 17.1445 23.5595C15.6822 22.7995 14.0582 22.4024 12.4102 22.4023C10.7619 22.4023 9.13733 22.7994 7.6748 23.5595C6.21224 24.3197 4.95399 25.4214 4.00684 26.7704L4.00586 26.7714C3.89454 26.9312 3.74597 27.0614 3.57324 27.1513C3.40043 27.2412 3.20848 27.2886 3.01367 27.288H3.01172C2.76183 27.2888 2.51776 27.2107 2.31445 27.0654L2.3125 27.0644L2.21777 26.9902C2.00629 26.8071 1.86371 26.5553 1.81543 26.2773C1.76718 25.9992 1.81669 25.7143 1.9541 25.4706L2.01855 25.3691C3.32562 23.5112 5.10627 22.0371 7.17578 21.1005L7.67969 20.873L7.25684 20.5175C6.00041 19.4606 5.09924 18.0423 4.67578 16.456C4.25241 14.8697 4.32716 13.1918 4.88965 11.6494C5.45218 10.1069 6.47508 8.77426 7.82031 7.83295C9.16554 6.89167 10.7683 6.38666 12.4102 6.38666ZM23.0459 6.39642H23.0479C24.6906 6.39173 26.2952 6.8942 27.6426 7.83392C28.9899 8.7737 30.015 10.1062 30.5781 11.6494C31.1411 13.1924 31.2154 14.8714 30.79 16.4579C30.3645 18.0447 29.4599 19.4621 28.2002 20.5165L27.7754 20.872L28.2803 21.1005C30.3498 22.0371 32.1304 23.5112 33.4375 25.3691L33.4395 25.371C33.5322 25.5008 33.5982 25.6481 33.6338 25.8036C33.6693 25.9593 33.6738 26.1209 33.6465 26.2783C33.6192 26.4356 33.5606 26.586 33.4746 26.7206C33.3887 26.8553 33.2768 26.9714 33.1455 27.0624L33.1416 27.0654C32.9383 27.2107 32.6942 27.2879 32.4443 27.287C32.2492 27.2857 32.0569 27.2384 31.8838 27.1484C31.7106 27.0581 31.5612 26.9278 31.4482 26.7685C30.4992 25.4224 29.241 24.3234 27.7793 23.5644C26.4087 22.8526 24.8965 22.459 23.3555 22.4111L23.0469 22.4062L22.9258 22.4003C22.6472 22.3726 22.3853 22.2494 22.1855 22.0497C21.9571 21.8213 21.8282 21.5114 21.8281 21.1884C21.8281 20.8654 21.9571 20.5555 22.1855 20.3271C22.414 20.0987 22.7239 19.9706 23.0469 19.9706C24.5236 19.9705 25.9402 19.383 26.9844 18.3388C28.0285 17.2945 28.6152 15.878 28.6152 14.4013C28.6151 12.9246 28.0286 11.508 26.9844 10.4638C26.0053 9.48469 24.6987 8.90798 23.3223 8.83978L23.0469 8.83295C22.5378 8.83201 22.0306 8.90227 21.541 9.04193L21.4199 9.0722C21.3014 9.09505 21.18 9.09975 21.0596 9.08685C20.8989 9.06964 20.7431 9.02122 20.6016 8.9433C20.4602 8.86544 20.3357 8.76011 20.2354 8.63373C20.1349 8.50718 20.0604 8.36152 20.0166 8.20599C19.9728 8.05049 19.9608 7.88782 19.9805 7.72748C20.0002 7.56719 20.0518 7.41265 20.1318 7.2724C20.212 7.1321 20.3192 7.00855 20.4473 6.9101C20.5753 6.81175 20.7219 6.73948 20.8779 6.69818L20.8838 6.6972C21.587 6.49701 22.3148 6.39521 23.0459 6.39642ZM13.4961 8.94037C12.4159 8.7255 11.2958 8.8353 10.2783 9.25677C9.26094 9.67824 8.39113 10.3919 7.7793 11.3076C7.16748 12.2232 6.84089 13.3001 6.84082 14.4013C6.84082 15.878 7.42763 17.2945 8.47168 18.3388C9.51599 19.3831 10.9333 19.9706 12.4102 19.9706C13.5111 19.9705 14.5874 19.6437 15.5029 19.0322C16.4187 18.4203 17.1332 17.5497 17.5547 16.5322C17.976 15.5148 18.0859 14.3954 17.8711 13.3154C17.6562 12.2352 17.1264 11.2426 16.3477 10.4638C15.5689 9.68506 14.5762 9.15525 13.4961 8.94037Z" fill="#4CAF4F" stroke="#4CAF4F" stroke-width="0.696069"/>
</g>
<defs>
<clipPath id="clip0_211_2332">
<rect width="33.4113" height="33.4113" fill="white" transform="translate(0.924561 0.306213)"/>
</clipPath>
</defs>
</svg>
