<svg width="34" height="34" viewBox="0 0 34 34" fill="none" xmlns="http://www.w3.org/2000/svg">
<mask id="path-1-inside-1_211_2338" fill="white">
<path d="M20.0113 16.7646C19.8437 16.7646 19.6881 16.7185 19.5499 16.6444V16.6463C19.5499 16.91 19.4474 17.1577 19.2614 17.3431C19.0754 17.5291 18.828 17.6316 18.5646 17.6316C18.3945 17.6316 18.2369 17.5844 18.0972 17.5083C18.0831 17.7495 17.9867 17.975 17.8146 18.1472C17.6287 18.3332 17.3812 18.4357 17.1176 18.4357C16.594 18.4357 16.1688 18.024 16.1381 17.5081C15.9761 17.5957 15.7929 17.6416 15.604 17.6295C15.0889 17.5957 14.6855 17.1506 14.6855 16.616V12.1844L14.1808 13.0586C13.9886 13.393 13.6289 13.6006 13.2415 13.6006C13.0527 13.6006 12.8663 13.5511 12.7011 13.4564C12.4955 13.3372 12.3484 13.1458 12.2872 12.9169C12.2257 12.6878 12.2575 12.4482 12.3764 12.2429C12.3766 12.2429 14.0275 9.38395 14.1282 9.20834C14.1402 9.18194 14.1743 9.10536 14.2033 9.04009C14.231 8.97777 14.2548 8.91381 14.2776 8.84953C14.7755 7.44397 16.0082 6.57087 17.495 6.57087C19.4257 6.57087 20.9964 8.27408 20.9964 10.3676L20.9965 15.7791C20.9965 16.0425 20.8942 16.29 20.7084 16.4761C20.5224 16.6621 20.275 16.7646 20.0113 16.7646L20.0113 16.7646ZM17.495 7.09441C16.2175 7.09441 15.1993 7.816 14.7711 9.02462C14.7437 9.10137 14.7152 9.17811 14.6819 9.2529C14.5853 9.46953 14.5853 9.46953 14.5581 9.50069L14.5545 9.49757C14.4197 9.75192 14.0192 10.4454 12.8297 12.5049C12.7809 12.5893 12.7679 12.6874 12.7928 12.7812C12.8181 12.875 12.8786 12.954 12.9624 13.0024C13.2225 13.1518 13.5787 13.0554 13.727 12.7971L14.7206 11.0768C14.7799 10.9743 14.9 10.924 15.0151 10.9551C15.1296 10.9858 15.2091 11.0896 15.2091 11.208V16.6161C15.2091 16.8713 15.4016 17.0915 15.6383 17.1071C15.7747 17.1143 15.902 17.0686 15.9976 16.9731C16.0845 16.8862 16.1324 16.7704 16.1324 16.6466V13.1096C16.1324 12.965 16.2497 12.8477 16.3943 12.8477C16.5389 12.8477 16.6562 12.9648 16.6562 13.1096L16.656 17.4506C16.656 17.7051 16.8632 17.9122 17.1177 17.9122C17.2413 17.9122 17.3574 17.8643 17.4445 17.7774C17.5314 17.6903 17.5793 17.5742 17.5793 17.4506V13.1096C17.5793 12.965 17.6964 12.8477 17.8412 12.8477C17.9858 12.8477 18.1031 12.9648 18.1031 13.1096L18.1029 16.6059V16.6466C18.1029 16.901 18.3101 17.1081 18.5647 17.1081C18.6882 17.1081 18.804 17.06 18.8916 16.9728C18.9785 16.886 19.0264 16.7703 19.0264 16.6464V13.1094C19.0264 12.9648 19.1435 12.8476 19.2883 12.8476C19.4329 12.8476 19.5502 12.9646 19.5502 13.1094L19.5498 15.7793C19.5498 16.0339 19.757 16.2411 20.0113 16.2411C20.1351 16.2411 20.2509 16.193 20.3378 16.1063C20.4251 16.019 20.4728 15.9029 20.4728 15.7793L20.4729 10.3678C20.4729 8.56304 19.1371 7.09446 17.495 7.09446L17.495 7.09441Z"/>
</mask>
<path d="M20.0113 16.7646C19.8437 16.7646 19.6881 16.7185 19.5499 16.6444V16.6463C19.5499 16.91 19.4474 17.1577 19.2614 17.3431C19.0754 17.5291 18.828 17.6316 18.5646 17.6316C18.3945 17.6316 18.2369 17.5844 18.0972 17.5083C18.0831 17.7495 17.9867 17.975 17.8146 18.1472C17.6287 18.3332 17.3812 18.4357 17.1176 18.4357C16.594 18.4357 16.1688 18.024 16.1381 17.5081C15.9761 17.5957 15.7929 17.6416 15.604 17.6295C15.0889 17.5957 14.6855 17.1506 14.6855 16.616V12.1844L14.1808 13.0586C13.9886 13.393 13.6289 13.6006 13.2415 13.6006C13.0527 13.6006 12.8663 13.5511 12.7011 13.4564C12.4955 13.3372 12.3484 13.1458 12.2872 12.9169C12.2257 12.6878 12.2575 12.4482 12.3764 12.2429C12.3766 12.2429 14.0275 9.38395 14.1282 9.20834C14.1402 9.18194 14.1743 9.10536 14.2033 9.04009C14.231 8.97777 14.2548 8.91381 14.2776 8.84953C14.7755 7.44397 16.0082 6.57087 17.495 6.57087C19.4257 6.57087 20.9964 8.27408 20.9964 10.3676L20.9965 15.7791C20.9965 16.0425 20.8942 16.29 20.7084 16.4761C20.5224 16.6621 20.275 16.7646 20.0113 16.7646L20.0113 16.7646ZM17.495 7.09441C16.2175 7.09441 15.1993 7.816 14.7711 9.02462C14.7437 9.10137 14.7152 9.17811 14.6819 9.2529C14.5853 9.46953 14.5853 9.46953 14.5581 9.50069L14.5545 9.49757C14.4197 9.75192 14.0192 10.4454 12.8297 12.5049C12.7809 12.5893 12.7679 12.6874 12.7928 12.7812C12.8181 12.875 12.8786 12.954 12.9624 13.0024C13.2225 13.1518 13.5787 13.0554 13.727 12.7971L14.7206 11.0768C14.7799 10.9743 14.9 10.924 15.0151 10.9551C15.1296 10.9858 15.2091 11.0896 15.2091 11.208V16.6161C15.2091 16.8713 15.4016 17.0915 15.6383 17.1071C15.7747 17.1143 15.902 17.0686 15.9976 16.9731C16.0845 16.8862 16.1324 16.7704 16.1324 16.6466V13.1096C16.1324 12.965 16.2497 12.8477 16.3943 12.8477C16.5389 12.8477 16.6562 12.9648 16.6562 13.1096L16.656 17.4506C16.656 17.7051 16.8632 17.9122 17.1177 17.9122C17.2413 17.9122 17.3574 17.8643 17.4445 17.7774C17.5314 17.6903 17.5793 17.5742 17.5793 17.4506V13.1096C17.5793 12.965 17.6964 12.8477 17.8412 12.8477C17.9858 12.8477 18.1031 12.9648 18.1031 13.1096L18.1029 16.6059V16.6466C18.1029 16.901 18.3101 17.1081 18.5647 17.1081C18.6882 17.1081 18.804 17.06 18.8916 16.9728C18.9785 16.886 19.0264 16.7703 19.0264 16.6464V13.1094C19.0264 12.9648 19.1435 12.8476 19.2883 12.8476C19.4329 12.8476 19.5502 12.9646 19.5502 13.1094L19.5498 15.7793C19.5498 16.0339 19.757 16.2411 20.0113 16.2411C20.1351 16.2411 20.2509 16.193 20.3378 16.1063C20.4251 16.019 20.4728 15.9029 20.4728 15.7793L20.4729 10.3678C20.4729 8.56304 19.1371 7.09446 17.495 7.09446L17.495 7.09441Z" fill="#4CAF4F"/>
<path d="M20.0113 16.7646V15.8365H23.2903L20.4977 17.555L20.0113 16.7646ZM19.5499 16.6444H18.6218V15.0936L19.9884 15.8264L19.5499 16.6444ZM19.2614 17.3431L18.6051 16.6869L18.606 16.686L19.2614 17.3431ZM18.0972 17.5083L17.1707 17.4541L17.2561 15.9934L18.5411 16.6932L18.0972 17.5083ZM17.8146 18.1472L18.4712 18.8031L18.4709 18.8035L17.8146 18.1472ZM16.1381 17.5081L15.6968 16.6916L16.9782 15.9991L17.0646 17.4531L16.1381 17.5081ZM15.604 17.6295L15.5445 18.5557L15.5432 18.5556L15.604 17.6295ZM14.6855 12.1844L13.8817 11.7204L15.6136 8.71998V12.1844H14.6855ZM14.1808 13.0586L13.3762 12.5961L13.377 12.5946L14.1808 13.0586ZM12.7011 13.4564L12.2397 14.2617L12.2356 14.2593L12.7011 13.4564ZM12.2872 12.9169L13.1836 12.6763L13.1839 12.6773L12.2872 12.9169ZM12.3764 12.2429L11.5733 11.7778L11.8414 11.3148H12.3764V12.2429ZM14.1282 9.20834L14.9735 9.5916L14.9553 9.63179L14.9333 9.67007L14.1282 9.20834ZM14.2033 9.04009L13.3553 8.66296L13.3553 8.66295L14.2033 9.04009ZM14.2776 8.84953L15.1524 9.1594L15.1524 9.15966L14.2776 8.84953ZM20.9964 10.3676L20.0683 10.3677V10.3676H20.9964ZM20.9965 15.7791L21.9246 15.7791V15.7791H20.9965ZM20.7084 16.4761L21.3653 17.1318L21.3647 17.1324L20.7084 16.4761ZM20.0113 16.7646V17.6927H16.7323L19.5249 15.9742L20.0113 16.7646ZM17.495 7.09441V6.16632H18.7254L18.3874 7.34938L17.495 7.09441ZM14.7711 9.02462L15.6459 9.33454L15.6452 9.33654L14.7711 9.02462ZM14.6819 9.2529L15.5297 9.63035L15.5295 9.63084L14.6819 9.2529ZM14.5581 9.50069L15.257 10.1113L14.6498 10.8062L13.9514 10.2031L14.5581 9.50069ZM14.5545 9.49757L13.7344 9.06297L14.2797 8.03401L15.1611 8.79517L14.5545 9.49757ZM12.8297 12.5049L13.6334 12.969L13.633 12.9697L12.8297 12.5049ZM12.7928 12.7812L11.8967 13.0225L11.8959 13.0196L12.7928 12.7812ZM12.9624 13.0024L12.5001 13.8072L12.4984 13.8062L12.9624 13.0024ZM13.727 12.7971L12.922 12.3351L12.9233 12.3329L13.727 12.7971ZM14.7206 11.0768L13.9169 10.6126L13.9175 10.6116L14.7206 11.0768ZM15.0151 10.9551L14.7749 11.8516L14.7726 11.851L15.0151 10.9551ZM15.6383 17.1071L15.5893 18.034L15.5773 18.0332L15.6383 17.1071ZM15.9976 16.9731L16.6539 17.6294L16.6533 17.63L15.9976 16.9731ZM16.6562 13.1096H17.5843V13.1097L16.6562 13.1096ZM16.656 17.4506H15.7279V17.4505L16.656 17.4506ZM17.4445 17.7774L18.1014 18.4331L18.1001 18.4343L17.4445 17.7774ZM18.1031 13.1096H19.0312V13.1097L18.1031 13.1096ZM18.1029 16.6059H17.1748V16.6059L18.1029 16.6059ZM18.8916 16.9728L19.5472 17.6297L19.5466 17.6303L18.8916 16.9728ZM19.5502 13.1094H20.4783V13.1096L19.5502 13.1094ZM19.5498 15.7793H18.6218V15.7791L19.5498 15.7793ZM20.3378 16.1063L20.9941 16.7625L20.9935 16.7631L20.3378 16.1063ZM20.4728 15.7793H19.5447V15.7792L20.4728 15.7793ZM20.4729 10.3678H21.401V10.3678L20.4729 10.3678ZM17.495 7.09446V8.02256H16.2646L16.6026 6.8395L17.495 7.09446ZM20.0113 17.6927C19.6696 17.6927 19.3645 17.598 19.1113 17.4623L19.9884 15.8264C20.0004 15.8329 20.008 15.8353 20.0111 15.8361C20.0137 15.8368 20.0133 15.8365 20.0113 15.8365V17.6927ZM20.478 16.6444V16.6463H18.6218V16.6444H20.478ZM20.478 16.6463C20.478 17.1554 20.2782 17.6398 19.9168 18.0003L18.606 16.686C18.6126 16.6794 18.6159 16.6737 18.6178 16.6691C18.6198 16.6644 18.6218 16.6573 18.6218 16.6463H20.478ZM19.9177 17.9994C19.5575 18.3596 19.0739 18.5597 18.5646 18.5597V16.7035C18.5752 16.7035 18.5822 16.7016 18.587 16.6996C18.5917 16.6976 18.5979 16.6941 18.6051 16.6869L19.9177 17.9994ZM18.5646 18.5597C18.2184 18.5597 17.9095 18.4628 17.6533 18.3234L18.5411 16.6932C18.5531 16.6998 18.5608 16.7023 18.5638 16.7031C18.5664 16.7038 18.5662 16.7035 18.5646 16.7035V18.5597ZM19.0237 17.5624C18.997 18.0193 18.8117 18.4623 18.4712 18.8031L17.158 17.4913C17.1615 17.4878 17.1635 17.4848 17.1652 17.481C17.167 17.4768 17.1699 17.4683 17.1707 17.4541L19.0237 17.5624ZM18.4709 18.8035C18.1107 19.1637 17.6271 19.3638 17.1176 19.3638V17.5076C17.1284 17.5076 17.1355 17.5056 17.1403 17.5037C17.145 17.5017 17.1511 17.4982 17.1584 17.4909L18.4709 18.8035ZM17.1176 19.3638C16.093 19.3638 15.2709 18.5596 15.2117 17.5632L17.0646 17.4531C17.0655 17.4689 17.072 17.4827 17.0834 17.4936C17.089 17.4989 17.0946 17.5023 17.0995 17.5044C17.1039 17.5061 17.1094 17.5076 17.1176 17.5076V19.3638ZM16.5794 18.3246C16.2796 18.4866 15.9242 18.58 15.5445 18.5557L15.6635 16.7033C15.6635 16.7033 15.6655 16.7035 15.6704 16.7023C15.6756 16.7011 15.6847 16.6982 15.6968 16.6916L16.5794 18.3246ZM15.5432 18.5556C14.5128 18.488 13.7574 17.6116 13.7574 16.616H15.6136C15.6136 16.6474 15.6249 16.6715 15.6392 16.6873C15.6531 16.7026 15.6626 16.7032 15.6647 16.7034L15.5432 18.5556ZM13.7574 16.616V12.1844H15.6136V16.616H13.7574ZM15.4893 12.6483L14.9846 13.5226L13.377 12.5946L13.8817 11.7204L15.4893 12.6483ZM14.9855 13.5211C14.6269 14.145 13.9593 14.5287 13.2415 14.5287V12.6725C13.2984 12.6725 13.3504 12.6409 13.3762 12.5961L14.9855 13.5211ZM13.2415 14.5287C12.8905 14.5287 12.545 14.4366 12.2397 14.2617L13.1626 12.6512C13.1875 12.6655 13.2149 12.6725 13.2415 12.6725V14.5287ZM12.2356 14.2593C11.819 14.0178 11.5157 13.6247 11.3906 13.1564L13.1839 12.6773C13.183 12.6741 13.1807 12.6685 13.1762 12.6627C13.1718 12.6569 13.1677 12.6541 13.1666 12.6535L12.2356 14.2593ZM11.3909 13.1575C11.2653 12.6896 11.331 12.1962 11.5733 11.7778L13.1796 12.7079C13.1809 12.7056 13.1832 12.7003 13.1842 12.6928C13.1852 12.6853 13.1844 12.6793 13.1836 12.6763L11.3909 13.1575ZM12.3764 11.3148C11.9212 11.4341 11.5804 11.7657 11.5779 11.77C11.577 11.7714 11.5757 11.7735 11.5753 11.7742C11.5751 11.7746 11.5747 11.7753 11.5746 11.7755C11.5745 11.7757 11.5743 11.776 11.5743 11.776C11.5742 11.7763 11.5742 11.7762 11.5745 11.7756C11.5752 11.7745 11.5762 11.7727 11.5778 11.77C11.5808 11.7647 11.5854 11.7568 11.5915 11.7463C11.6035 11.7254 11.6213 11.6947 11.644 11.6554C11.6893 11.577 11.7542 11.4646 11.8324 11.3293C11.9887 11.0585 12.1982 10.6957 12.4109 10.3274C12.8369 9.58953 13.2737 8.83288 13.3231 8.74662L14.9333 9.67007C14.8821 9.75942 14.443 10.52 14.0184 11.2555C13.8057 11.6239 13.5961 11.9868 13.4397 12.2575C13.3616 12.3929 13.2966 12.5053 13.2513 12.5839C13.2286 12.6232 13.2108 12.654 13.1986 12.6751C13.1925 12.6856 13.1878 12.6937 13.1846 12.6993C13.183 12.702 13.1817 12.7043 13.1807 12.706C13.1803 12.7067 13.1797 12.7077 13.1792 12.7086C13.179 12.709 13.1784 12.71 13.1777 12.7112C13.1772 12.712 13.1759 12.7142 13.175 12.7157C13.1725 12.72 12.8317 13.0516 12.3764 13.1709V11.3148ZM13.283 8.82508C13.2932 8.80255 13.3255 8.72991 13.3553 8.66296L15.0513 9.41721C15.0231 9.48081 14.9872 9.56133 14.9735 9.5916L13.283 8.82508ZM13.3553 8.66295C13.3682 8.63395 13.3825 8.59689 13.4029 8.5394L15.1524 9.15966C15.1272 9.23074 15.0939 9.32159 15.0513 9.41723L13.3553 8.66295ZM13.4028 8.53965C14.0314 6.76504 15.6135 5.64277 17.495 5.64277V7.49896C16.4029 7.49896 15.5196 8.1229 15.1524 9.1594L13.4028 8.53965ZM17.495 5.64277C20.0076 5.64277 21.9245 7.83371 21.9245 10.3676H20.0683C20.0683 8.71445 18.8438 7.49896 17.495 7.49896V5.64277ZM21.9245 10.3676L21.9246 15.7791L20.0685 15.7792L20.0683 10.3677L21.9245 10.3676ZM21.9246 15.7791C21.9246 16.2881 21.725 16.7714 21.3653 17.1318L20.0515 15.8205C20.0589 15.8131 20.0625 15.8069 20.0645 15.802C20.0665 15.7971 20.0685 15.79 20.0685 15.7791H21.9246ZM21.3647 17.1324C21.0044 17.4927 20.5208 17.6927 20.0113 17.6927V15.8365C20.0222 15.8365 20.0293 15.8345 20.0341 15.8325C20.0388 15.8306 20.0449 15.8271 20.0521 15.8199L21.3647 17.1324ZM19.5249 15.9742L19.5249 15.9741L20.4977 17.555L20.4977 17.555L19.5249 15.9742ZM17.495 8.0225C16.6126 8.0225 15.9435 8.49454 15.6459 9.33454L13.8963 8.7147C14.455 7.13745 15.8224 6.16632 17.495 6.16632V8.0225ZM15.6452 9.33654C15.6159 9.41863 15.5778 9.52232 15.5297 9.63035L13.834 8.87544C13.8525 8.83391 13.8715 8.7841 13.897 8.7127L15.6452 9.33654ZM15.5295 9.63084C15.487 9.72616 15.4514 9.80666 15.4242 9.86119C15.4073 9.89503 15.3799 9.94719 15.3402 10.005C15.2999 10.0635 15.2602 10.1076 15.257 10.1113L13.8592 8.89003C13.8613 8.88754 13.8606 8.88835 13.8595 8.88963C13.8581 8.89127 13.8545 8.89548 13.8498 8.90125C13.8449 8.90722 13.8387 8.91494 13.8317 8.92412C13.8247 8.93338 13.8176 8.94323 13.8104 8.95362C13.7959 8.97478 13.7847 8.99331 13.7767 9.00733C13.7693 9.02041 13.7648 9.02946 13.7637 9.0315C13.7627 9.03361 13.7633 9.03237 13.7665 9.02562C13.7695 9.01908 13.7739 9.00965 13.7801 8.99594C13.7862 8.98234 13.7936 8.96592 13.8027 8.94563C13.8117 8.92537 13.8221 8.90216 13.8342 8.87495L15.5295 9.63084ZM13.9514 10.2031L13.9478 10.2L15.1611 8.79517L15.1647 8.79828L13.9514 10.2031ZM15.3745 9.93217C15.2292 10.2063 14.8146 10.924 13.6334 12.969L12.0261 12.0407C13.2238 9.96691 13.6101 9.2976 13.7344 9.06297L15.3745 9.93217ZM13.633 12.9697C13.7073 12.8414 13.728 12.6865 13.6898 12.5428L11.8959 13.0196C11.8078 12.6883 11.8544 12.3373 12.0264 12.04L13.633 12.9697ZM13.689 12.5399C13.6508 12.3981 13.557 12.274 13.4264 12.1986L12.4984 13.8062C12.2003 13.6341 11.9854 13.3519 11.8967 13.0225L13.689 12.5399ZM13.4247 12.1976C13.319 12.137 13.2163 12.1374 13.1453 12.1565C13.0747 12.1755 12.984 12.227 12.922 12.3351L14.5319 13.2591C14.1274 13.9638 13.203 14.2109 12.5001 13.8072L13.4247 12.1976ZM12.9233 12.3329L13.9169 10.6126L15.5243 11.541L14.5306 13.2613L12.9233 12.3329ZM13.9175 10.6116C14.1856 10.1488 14.7327 9.91721 15.2576 10.0593L14.7726 11.851C15.0673 11.9307 15.3743 11.7998 15.5237 11.542L13.9175 10.6116ZM15.2553 10.0586C15.776 10.1981 16.1372 10.67 16.1372 11.208H14.281C14.281 11.5092 14.4832 11.7734 14.7749 11.8516L15.2553 10.0586ZM16.1372 11.208V16.6161H14.281V11.208H16.1372ZM16.1372 16.6161C16.1372 16.5104 16.098 16.4142 16.0337 16.3407C15.9695 16.2672 15.8562 16.1914 15.6992 16.181L15.5773 18.0332C14.7961 17.9818 14.281 17.3012 14.281 16.6161H16.1372ZM15.6873 16.1803C15.5777 16.1745 15.4437 16.2147 15.3419 16.3163L16.6533 17.63C16.3603 17.9225 15.9718 18.0541 15.5893 18.0339L15.6873 16.1803ZM15.3413 16.3169C15.2533 16.4049 15.2043 16.5256 15.2043 16.6466H17.0605C17.0605 17.0152 16.9158 17.3675 16.6539 17.6294L15.3413 16.3169ZM15.2043 16.6466V13.1096H17.0605V16.6466H15.2043ZM15.2043 13.1096C15.2043 12.4524 15.7371 11.9196 16.3943 11.9196V13.7758C16.7622 13.7758 17.0605 13.4776 17.0605 13.1096H15.2043ZM16.3943 11.9196C17.0511 11.9196 17.5843 12.4519 17.5843 13.1096H15.7281C15.7281 13.4778 16.0267 13.7758 16.3943 13.7758V11.9196ZM17.5843 13.1097L17.5841 17.4506L15.7279 17.4505L15.7281 13.1096L17.5843 13.1097ZM17.5841 17.4506C17.5841 17.1925 17.3757 16.9841 17.1177 16.9841V18.8403C16.3506 18.8403 15.7279 18.2177 15.7279 17.4506H17.5841ZM17.1177 16.9841C16.9969 16.9841 16.8768 17.0328 16.7889 17.1205L18.1001 18.4343C17.8381 18.6959 17.4858 18.8403 17.1177 18.8403V16.9841ZM16.7876 17.1218C16.6999 17.2097 16.6512 17.3298 16.6512 17.4506H18.5074C18.5074 17.8187 18.363 18.171 18.1014 18.4331L16.7876 17.1218ZM16.6512 17.4506V13.1096H18.5074V17.4506H16.6512ZM16.6512 13.1096C16.6512 12.4528 17.1834 11.9196 17.8412 11.9196V13.7758C18.2094 13.7758 18.5074 13.4772 18.5074 13.1096H16.6512ZM17.8412 11.9196C18.498 11.9196 19.0312 12.4519 19.0312 13.1096H17.175C17.175 13.4778 17.4737 13.7758 17.8412 13.7758V11.9196ZM19.0312 13.1097L19.031 16.606L17.1748 16.6059L17.175 13.1096L19.0312 13.1097ZM19.031 16.6059V16.6466H17.1748V16.6059H19.031ZM19.031 16.6466C19.031 16.3879 18.8222 16.18 18.5647 16.18V18.0362C17.7979 18.0362 17.1748 17.414 17.1748 16.6466H19.031ZM18.5647 16.18C18.4414 16.18 18.322 16.2301 18.2366 16.3153L19.5466 17.6303C19.286 17.8899 18.935 18.0362 18.5647 18.0362V16.18ZM18.2359 16.3159C18.1472 16.4045 18.0983 16.5256 18.0983 16.6464H19.9545C19.9545 17.0149 19.8098 17.3675 19.5472 17.6297L18.2359 16.3159ZM18.0983 16.6464V13.1094H19.9545V16.6464H18.0983ZM18.0983 13.1094C18.0983 12.4526 18.6305 11.9195 19.2883 11.9195V13.7756C19.6564 13.7756 19.9545 13.477 19.9545 13.1094H18.0983ZM19.2883 11.9195C19.9451 11.9195 20.4783 12.4517 20.4783 13.1094H18.6221C18.6221 13.4776 18.9207 13.7756 19.2883 13.7756V11.9195ZM20.4783 13.1096L20.4779 15.7794L18.6218 15.7791L18.6221 13.1093L20.4783 13.1096ZM20.4779 15.7793C20.4779 15.5218 20.27 15.313 20.0113 15.313V17.1692C19.244 17.1692 18.6218 16.5461 18.6218 15.7793H20.4779ZM20.0113 15.313C19.8896 15.313 19.7695 15.3623 19.6822 15.4494L20.9935 16.7631C20.7323 17.0238 20.3807 17.1692 20.0113 17.1692V15.313ZM19.6816 15.45C19.5932 15.5384 19.5447 15.659 19.5447 15.7793H21.4009C21.4009 16.1468 21.2569 16.4997 20.9941 16.7625L19.6816 15.45ZM19.5447 15.7792L19.5449 10.3677L21.401 10.3678L21.4009 15.7793L19.5447 15.7792ZM19.5449 10.3678C19.5449 8.99103 18.5438 8.02256 17.495 8.02256V6.16637C19.7303 6.16637 21.401 8.13505 21.401 10.3678H19.5449ZM16.6026 6.8395L16.6026 6.83944L18.3874 7.34938L18.3874 7.34943L16.6026 6.8395Z" fill="#4CAF4F" mask="url(#path-1-inside-1_211_2338)"/>
<path d="M8.6311 18.5526L8.57935 18.5252C8.56707 18.5473 8.53263 18.6093 8.48169 18.701C8.49978 18.71 8.5181 18.7176 8.53638 18.7245C8.56753 18.6683 8.59875 18.6109 8.6311 18.5526Z" fill="#4CAF4F" stroke="#4CAF4F" stroke-width="0.928093"/>
<mask id="path-4-inside-2_211_2338" fill="white">
<path d="M27.8813 25.8226C27.398 26.6286 26.6032 27.1803 25.643 27.3764C24.6914 27.5704 23.6905 27.3915 22.8243 26.8721L18.1836 24.0882C17.9578 23.9527 17.7981 23.7376 17.7341 23.482C17.6706 23.227 17.7103 22.9622 17.8456 22.7365C17.9301 22.5955 18.0485 22.4843 18.1857 22.4022L18.1844 22.4013C17.9586 22.2659 17.7989 22.0507 17.7353 21.7955C17.6713 21.5404 17.711 21.2753 17.8464 21.0494C17.9337 20.9043 18.0532 20.7908 18.1897 20.7102C17.9916 20.574 17.8489 20.376 17.7902 20.1412C17.7262 19.8858 17.7659 19.621 17.9014 19.3953C18.0367 19.1695 18.252 19.0099 18.5072 18.9462C18.5869 18.9262 18.6677 18.9163 18.7478 18.9163C18.9049 18.9165 19.059 18.9563 19.2007 19.0305C19.2094 18.8469 19.264 18.6667 19.3713 18.5121C19.6653 18.0878 20.2543 17.9704 20.7132 18.2457L24.5134 20.5252L24.0236 19.6429C23.8356 19.3061 23.8425 18.8905 24.0418 18.5583C24.1389 18.3966 24.2776 18.2623 24.4434 18.1693C24.5797 18.0939 24.7273 18.0581 24.8729 18.0581C25.1856 18.0583 25.4893 18.2233 25.651 18.5153C26.2145 19.5306 27.2778 21.4454 27.3526 21.5791C27.3685 21.6022 27.4165 21.6711 27.4577 21.7296C27.4969 21.7852 27.5392 21.8383 27.583 21.8911C28.5319 23.0414 28.6463 24.5476 27.8813 25.8226L27.8813 25.8226ZM27.179 22.2249C27.1268 22.1618 27.0757 22.0973 27.0291 22.0309C26.8874 21.8298 26.8838 21.8246 26.8731 21.7719C26.7075 21.4979 26.3034 20.7705 25.1927 18.7694C25.0953 18.5938 24.8739 18.5296 24.6976 18.627C24.6109 18.6756 24.5412 18.7433 24.4903 18.8281C24.3873 18.9998 24.3834 19.2143 24.4807 19.3885L25.4446 21.1253C25.5022 21.229 25.483 21.3582 25.3979 21.4405C25.3129 21.523 25.183 21.5374 25.081 21.4768L20.4437 18.6948C20.2251 18.5637 19.937 18.6151 19.8018 18.8102C19.7241 18.9224 19.6993 19.0562 19.7318 19.1869C19.7617 19.3063 19.8366 19.407 19.9427 19.4706C19.943 19.4708 19.9432 19.4711 19.9435 19.4713L22.9756 21.2903C23.0996 21.3647 23.1397 21.5254 23.0653 21.6496C22.9908 21.7734 22.8303 21.8139 22.706 21.7393L18.9835 19.5062C18.8779 19.4429 18.7536 19.4242 18.6342 19.4542C18.5145 19.4841 18.4138 19.5589 18.3503 19.665C18.2867 19.7707 18.2683 19.8949 18.2979 20.0143C18.3277 20.1337 18.4027 20.2345 18.5086 20.2981L19.233 20.7326L22.2309 22.5312C22.3549 22.6057 22.3951 22.7664 22.3206 22.8906C22.2461 23.0144 22.0856 23.0547 21.9613 22.9803L18.9286 21.1608C18.7105 21.0296 18.4264 21.1007 18.2952 21.3192C18.2316 21.4251 18.2133 21.5493 18.2428 21.6686C18.2726 21.788 18.3476 21.8887 18.4537 21.9525L19.1972 22.3986L21.4864 23.772C21.6103 23.8465 21.6505 24.0072 21.5761 24.1313C21.5016 24.2551 21.3411 24.2958 21.2168 24.221L18.9276 22.8476C18.822 22.7843 18.6982 22.7656 18.5781 22.7956C18.4587 22.8254 18.3577 22.9002 18.2943 23.006C18.2308 23.1119 18.2123 23.2362 18.2418 23.3555C18.2716 23.4748 18.3466 23.5755 18.4527 23.6393L23.0934 26.4232C23.8465 26.8751 24.7149 27.0315 25.5379 26.8636C26.3522 26.6973 27.025 26.232 27.432 25.5534C28.0897 24.4576 27.9951 23.2133 27.1793 22.2249L27.179 22.2249Z"/>
</mask>
<path d="M27.8813 25.8226C27.398 26.6286 26.6032 27.1803 25.643 27.3764C24.6914 27.5704 23.6905 27.3915 22.8243 26.8721L18.1836 24.0882C17.9578 23.9527 17.7981 23.7376 17.7341 23.482C17.6706 23.227 17.7103 22.9622 17.8456 22.7365C17.9301 22.5955 18.0485 22.4843 18.1857 22.4022L18.1844 22.4013C17.9586 22.2659 17.7989 22.0507 17.7353 21.7955C17.6713 21.5404 17.711 21.2753 17.8464 21.0494C17.9337 20.9043 18.0532 20.7908 18.1897 20.7102C17.9916 20.574 17.8489 20.376 17.7902 20.1412C17.7262 19.8858 17.7659 19.621 17.9014 19.3953C18.0367 19.1695 18.252 19.0099 18.5072 18.9462C18.5869 18.9262 18.6677 18.9163 18.7478 18.9163C18.9049 18.9165 19.059 18.9563 19.2007 19.0305C19.2094 18.8469 19.264 18.6667 19.3713 18.5121C19.6653 18.0878 20.2543 17.9704 20.7132 18.2457L24.5134 20.5252L24.0236 19.6429C23.8356 19.3061 23.8425 18.8905 24.0418 18.5583C24.1389 18.3966 24.2776 18.2623 24.4434 18.1693C24.5797 18.0939 24.7273 18.0581 24.8729 18.0581C25.1856 18.0583 25.4893 18.2233 25.651 18.5153C26.2145 19.5306 27.2778 21.4454 27.3526 21.5791C27.3685 21.6022 27.4165 21.6711 27.4577 21.7296C27.4969 21.7852 27.5392 21.8383 27.583 21.8911C28.5319 23.0414 28.6463 24.5476 27.8813 25.8226L27.8813 25.8226ZM27.179 22.2249C27.1268 22.1618 27.0757 22.0973 27.0291 22.0309C26.8874 21.8298 26.8838 21.8246 26.8731 21.7719C26.7075 21.4979 26.3034 20.7705 25.1927 18.7694C25.0953 18.5938 24.8739 18.5296 24.6976 18.627C24.6109 18.6756 24.5412 18.7433 24.4903 18.8281C24.3873 18.9998 24.3834 19.2143 24.4807 19.3885L25.4446 21.1253C25.5022 21.229 25.483 21.3582 25.3979 21.4405C25.3129 21.523 25.183 21.5374 25.081 21.4768L20.4437 18.6948C20.2251 18.5637 19.937 18.6151 19.8018 18.8102C19.7241 18.9224 19.6993 19.0562 19.7318 19.1869C19.7617 19.3063 19.8366 19.407 19.9427 19.4706C19.943 19.4708 19.9432 19.4711 19.9435 19.4713L22.9756 21.2903C23.0996 21.3647 23.1397 21.5254 23.0653 21.6496C22.9908 21.7734 22.8303 21.8139 22.706 21.7393L18.9835 19.5062C18.8779 19.4429 18.7536 19.4242 18.6342 19.4542C18.5145 19.4841 18.4138 19.5589 18.3503 19.665C18.2867 19.7707 18.2683 19.8949 18.2979 20.0143C18.3277 20.1337 18.4027 20.2345 18.5086 20.2981L19.233 20.7326L22.2309 22.5312C22.3549 22.6057 22.3951 22.7664 22.3206 22.8906C22.2461 23.0144 22.0856 23.0547 21.9613 22.9803L18.9286 21.1608C18.7105 21.0296 18.4264 21.1007 18.2952 21.3192C18.2316 21.4251 18.2133 21.5493 18.2428 21.6686C18.2726 21.788 18.3476 21.8887 18.4537 21.9525L19.1972 22.3986L21.4864 23.772C21.6103 23.8465 21.6505 24.0072 21.5761 24.1313C21.5016 24.2551 21.3411 24.2958 21.2168 24.221L18.9276 22.8476C18.822 22.7843 18.6982 22.7656 18.5781 22.7956C18.4587 22.8254 18.3577 22.9002 18.2943 23.006C18.2308 23.1119 18.2123 23.2362 18.2418 23.3555C18.2716 23.4748 18.3466 23.5755 18.4527 23.6393L23.0934 26.4232C23.8465 26.8751 24.7149 27.0315 25.5379 26.8636C26.3522 26.6973 27.025 26.232 27.432 25.5534C28.0897 24.4576 27.9951 23.2133 27.1793 22.2249L27.179 22.2249Z" fill="#4CAF4F"/>
<path d="M27.8813 25.8226L27.5819 24.9441L29.9805 24.1264L28.6773 26.2998L27.8813 25.8226ZM25.643 27.3764L25.8288 28.2857L25.8284 28.2858L25.643 27.3764ZM22.8243 26.8721L22.347 27.6681L22.3469 27.668L22.8243 26.8721ZM18.1836 24.0882L18.661 23.2923L18.661 23.2923L18.1836 24.0882ZM17.7341 23.482L16.8338 23.7074L16.8335 23.7062L17.7341 23.482ZM17.8456 22.7365L18.6419 23.2133L18.6416 23.2138L17.8456 22.7365ZM18.1857 22.4022L18.6776 21.6151L19.9642 22.4193L18.6624 23.1985L18.1857 22.4022ZM18.1844 22.4013L18.6618 21.6055L18.6691 21.6098L18.6763 21.6143L18.1844 22.4013ZM17.7353 21.7955L18.6355 21.5699L18.6358 21.571L17.7353 21.7955ZM17.8464 21.0494L17.0504 20.5722L17.051 20.5712L17.8464 21.0494ZM18.1897 20.7102L18.7157 19.9456L19.9143 20.7702L18.6614 21.5095L18.1897 20.7102ZM17.7902 20.1412L18.6905 19.9157L18.6906 19.9161L17.7902 20.1412ZM17.9014 19.3953L18.6975 19.8723L18.6971 19.873L17.9014 19.3953ZM18.5072 18.9462L18.7332 19.8463L18.7322 19.8466L18.5072 18.9462ZM18.7478 18.9163V17.9882L18.7487 17.9882L18.7478 18.9163ZM19.2007 19.0305L20.1278 19.0744L20.059 20.5269L18.7705 19.8528L19.2007 19.0305ZM19.3713 18.5121L20.134 19.0408L20.1339 19.0409L19.3713 18.5121ZM20.7132 18.2457L20.2358 19.0416L20.2357 19.0416L20.7132 18.2457ZM24.5134 20.5252L25.3249 20.0747L27.0059 23.1025L24.036 21.3211L24.5134 20.5252ZM24.0236 19.6429L24.8341 19.1907L24.835 19.1924L24.0236 19.6429ZM24.0418 18.5583L23.2459 18.081L23.2461 18.0806L24.0418 18.5583ZM24.4434 18.1693L23.9894 17.3598L23.9939 17.3573L24.4434 18.1693ZM24.8729 18.0581V17.13L24.8734 17.13L24.8729 18.0581ZM25.651 18.5153L24.8395 18.9657L24.839 18.9648L25.651 18.5153ZM27.3526 21.5791L26.588 22.1051L26.5636 22.0697L26.5426 22.0321L27.3526 21.5791ZM27.4577 21.7296L26.6992 22.2644L26.6985 22.2634L27.4577 21.7296ZM27.583 21.8911L28.2974 21.2988L28.2989 21.3005L27.583 21.8911ZM27.8813 25.8226L28.1808 26.701L25.7809 27.5192L27.0855 25.345L27.8813 25.8226ZM27.179 22.2249L27.2709 23.1484L26.7785 23.1974L26.4634 22.8159L27.179 22.2249ZM27.0291 22.0309L27.7877 21.4963L27.789 21.498L27.0291 22.0309ZM26.8731 21.7719L27.6674 21.2919L27.7508 21.4298L27.7828 21.5878L26.8731 21.7719ZM25.1927 18.7694L24.3812 19.2198L24.3811 19.2195L25.1927 18.7694ZM24.6976 18.627L24.2444 17.8171L24.2488 17.8147L24.6976 18.627ZM24.4903 18.8281L25.2863 19.3054L25.2862 19.3055L24.4903 18.8281ZM24.4807 19.3885L25.291 18.936L25.2921 18.9381L24.4807 19.3885ZM25.4446 21.1253L24.6332 21.5759L24.6331 21.5757L25.4446 21.1253ZM25.3979 21.4405L24.7513 20.7747L24.7526 20.7734L25.3979 21.4405ZM25.081 21.4768L24.6066 22.2744L24.6036 22.2726L25.081 21.4768ZM20.4437 18.6948L20.9208 17.8987L20.9211 17.8989L20.4437 18.6948ZM19.8018 18.8102L20.5648 19.3386L20.5647 19.3389L19.8018 18.8102ZM19.7318 19.1869L18.8314 19.412L18.8311 19.4107L19.7318 19.1869ZM19.9427 19.4706L19.5276 20.3007L19.4958 20.2848L19.4654 20.2666L19.9427 19.4706ZM19.9435 19.4713L20.3587 18.6412L20.3905 18.6571L20.421 18.6754L19.9435 19.4713ZM22.9756 21.2903L23.453 20.4944L23.4534 20.4946L22.9756 21.2903ZM23.0653 21.6496L23.8612 22.1269L23.8607 22.1279L23.0653 21.6496ZM22.706 21.7393L23.1834 20.9434L23.1837 20.9436L22.706 21.7393ZM18.9835 19.5062L19.4607 18.7102L19.461 18.7103L18.9835 19.5062ZM18.6342 19.4542L18.8605 20.3543L18.8587 20.3548L18.6342 19.4542ZM18.3503 19.665L19.1468 20.1414L19.1456 20.1434L18.3503 19.665ZM18.2979 20.0143L17.3975 20.2394L17.3969 20.237L18.2979 20.0143ZM18.5086 20.2981L18.0312 21.0941L18.0307 21.0937L18.5086 20.2981ZM19.233 20.7326L19.7103 19.9366L19.7104 19.9367L19.233 20.7326ZM22.2309 22.5312L22.7084 21.7354L22.7087 21.7356L22.2309 22.5312ZM22.3206 22.8906L23.1165 23.3679L23.116 23.3688L22.3206 22.8906ZM21.9613 22.9803L21.4844 23.7764L21.4838 23.7761L21.9613 22.9803ZM18.9286 21.1608L18.4511 21.9566L18.4502 21.9561L18.9286 21.1608ZM18.2952 21.3192L19.0909 21.797L19.0909 21.797L18.2952 21.3192ZM18.2428 21.6686L17.3424 21.8937L17.3418 21.8914L18.2428 21.6686ZM18.4537 21.9525L17.9762 22.7484L17.9754 22.7479L18.4537 21.9525ZM19.1972 22.3986L19.6747 21.6027L19.6747 21.6027L19.1972 22.3986ZM21.4864 23.772L21.9638 22.9762L21.9642 22.9764L21.4864 23.772ZM21.5761 24.1313L22.372 24.6087L22.3714 24.6096L21.5761 24.1313ZM21.2168 24.221L21.6942 23.4252L21.6952 23.4258L21.2168 24.221ZM18.9276 22.8476L19.4047 22.0515L19.4051 22.0517L18.9276 22.8476ZM18.5781 22.7956L18.353 21.8952L18.3531 21.8952L18.5781 22.7956ZM18.2943 23.006L17.4981 22.529L17.4984 22.5285L18.2943 23.006ZM18.2418 23.3555L17.3414 23.5806L17.3409 23.5785L18.2418 23.3555ZM18.4527 23.6393L17.9752 24.4352L17.9745 24.4347L18.4527 23.6393ZM23.0934 26.4232L23.5708 25.6274L23.5709 25.6274L23.0934 26.4232ZM25.5379 26.8636L25.7235 27.7729L25.7234 27.7729L25.5379 26.8636ZM27.432 25.5534L26.6361 25.076L26.6362 25.0758L27.432 25.5534ZM27.1793 22.2249L27.0873 21.3013L27.5799 21.2523L27.895 21.6341L27.1793 22.2249ZM28.6773 26.2998C28.0538 27.3397 27.0315 28.04 25.8288 28.2857L25.4573 26.4671C26.1749 26.3205 26.7423 25.9174 27.0854 25.3453L28.6773 26.2998ZM25.8284 28.2858C24.6398 28.5281 23.4036 28.3016 22.347 27.6681L23.3016 26.0761C23.9774 26.4814 24.7429 26.6127 25.4576 26.467L25.8284 28.2858ZM22.3469 27.668L17.7062 24.8841L18.661 23.2923L23.3017 26.0762L22.3469 27.668ZM17.7062 24.8841C17.2697 24.6223 16.9576 24.2021 16.8338 23.7074L18.6344 23.2567C18.6369 23.2668 18.6404 23.273 18.6436 23.2772C18.6467 23.2814 18.6518 23.2868 18.661 23.2923L17.7062 24.8841ZM16.8335 23.7062C16.7105 23.2122 16.7883 22.6952 17.0496 22.2593L18.6416 23.2138C18.636 23.223 18.634 23.2303 18.6332 23.2356C18.6324 23.241 18.6323 23.2481 18.6347 23.2579L16.8335 23.7062ZM17.0494 22.2597C17.2215 21.9723 17.4566 21.7569 17.7091 21.6058L18.6624 23.1985C18.6511 23.2053 18.6451 23.2105 18.6427 23.2129C18.6405 23.215 18.6408 23.2151 18.6419 23.2133L17.0494 22.2597ZM17.6938 23.1892L17.6925 23.1884L18.6763 21.6143L18.6776 21.6151L17.6938 23.1892ZM17.707 23.1972C17.2708 22.9355 16.9582 22.5153 16.8347 22.02L18.6358 21.571C18.6381 21.5805 18.6414 21.5864 18.6445 21.5904C18.6475 21.5945 18.6526 21.5999 18.6618 21.6055L17.707 23.1972ZM16.835 22.0212C16.7109 21.526 16.789 21.0083 17.0504 20.5722L18.6424 21.5266C18.6368 21.5361 18.6348 21.5433 18.634 21.5485C18.6332 21.5536 18.6331 21.5604 18.6355 21.5699L16.835 22.0212ZM17.051 20.5712C17.2223 20.2862 17.4565 20.0653 17.718 19.911L18.6614 21.5095C18.6553 21.5131 18.6512 21.5165 18.6485 21.5191C18.646 21.5216 18.6439 21.5242 18.6419 21.5275L17.051 20.5712ZM17.6637 21.4749C17.2888 21.217 17.0061 20.8316 16.8898 20.3663L18.6906 19.9161C18.6917 19.9205 18.6931 19.9236 18.6955 19.927C18.6982 19.9307 18.704 19.9375 18.7157 19.9456L17.6637 21.4749ZM16.8899 20.3667C16.7659 19.8716 16.8438 19.3539 17.1056 18.9177L18.6971 19.873C18.6916 19.8822 18.6897 19.8892 18.6889 19.8941C18.6882 19.8991 18.688 19.906 18.6905 19.9157L16.8899 20.3667ZM17.1052 18.9183C17.3672 18.4811 17.788 18.1693 18.2821 18.0458L18.7322 19.8466C18.7223 19.849 18.7162 19.8525 18.712 19.8555C18.7079 19.8586 18.7028 19.8635 18.6975 19.8723L17.1052 18.9183ZM18.2812 18.046C18.435 18.0074 18.5917 17.9882 18.7478 17.9882V19.8444C18.7438 19.8444 18.7388 19.8449 18.7332 19.8463L18.2812 18.046ZM18.7487 17.9882C19.064 17.9886 19.3646 18.0688 19.6309 18.2081L18.7705 19.8528C18.7616 19.8482 18.7553 19.8461 18.7518 19.8453C18.7484 19.8444 18.7469 19.8444 18.7468 19.8444L18.7487 17.9882ZM18.2736 18.9865C18.2896 18.649 18.3914 18.2964 18.6086 17.9832L20.1339 19.0409C20.1366 19.0371 20.1292 19.0449 20.1278 19.0744L18.2736 18.9865ZM18.6085 17.9834C19.1963 17.1352 20.336 16.9371 21.1907 17.4499L20.2357 19.0416C20.2087 19.0253 20.1821 19.0227 20.1613 19.0269C20.141 19.0309 20.1354 19.0388 20.134 19.0408L18.6085 17.9834ZM21.1906 17.4498L24.9908 19.7293L24.036 21.3211L20.2358 19.0416L21.1906 17.4498ZM23.702 20.9757L23.2122 20.0934L24.835 19.1924L25.3249 20.0747L23.702 20.9757ZM23.2131 20.0951C22.8626 19.4668 22.8765 18.6968 23.2459 18.081L24.8377 19.0356C24.8085 19.0843 24.8087 19.1454 24.8341 19.1907L23.2131 20.0951ZM23.2461 18.0806C23.4271 17.7791 23.6842 17.531 23.9894 17.3598L24.8974 18.9788C24.871 18.9936 24.8506 19.0141 24.8375 19.036L23.2461 18.0806ZM23.9939 17.3573C24.2716 17.2036 24.5745 17.13 24.8729 17.13V18.9862C24.8761 18.9862 24.8798 18.9858 24.8836 18.9848C24.8877 18.9838 24.8909 18.9824 24.8929 18.9813L23.9939 17.3573ZM24.8734 17.13C25.5076 17.1304 26.1304 17.465 26.463 18.0659L24.839 18.9648C24.8405 18.9674 24.8429 18.9709 24.8463 18.9744C24.8496 18.9776 24.8529 18.9801 24.8559 18.9818C24.8612 18.9848 24.8664 18.9862 24.8724 18.9862L24.8734 17.13ZM26.4625 18.065C27.0267 19.0815 28.0888 20.9941 28.1626 21.126L26.5426 22.0321C26.4668 21.8967 25.4023 19.9798 24.8395 18.9657L26.4625 18.065ZM28.1172 21.053C28.1303 21.0721 28.1761 21.1378 28.2169 21.1958L26.6985 22.2634C26.6569 22.2043 26.6067 22.1323 26.588 22.1051L28.1172 21.053ZM28.2162 21.1948C28.2354 21.2221 28.2605 21.2542 28.2974 21.2988L26.8686 22.4835C26.818 22.4225 26.7584 22.3484 26.6992 22.2644L28.2162 21.1948ZM28.2989 21.3005C29.4969 22.7527 29.6452 24.6867 28.6771 26.3001L27.0855 25.345C27.6474 24.4086 27.5669 23.3301 26.8671 22.4818L28.2989 21.3005ZM27.5818 24.9441L27.5819 24.9441L28.1808 26.701L28.1808 26.701L27.5818 24.9441ZM26.4634 22.8159C26.4048 22.7449 26.3361 22.6591 26.2692 22.5638L27.789 21.498C27.8153 21.5355 27.8489 21.5786 27.8945 21.6339L26.4634 22.8159ZM26.2705 22.5655C26.212 22.4826 26.1492 22.3946 26.1075 22.3256C26.0797 22.2794 26.0423 22.212 26.0108 22.1262C25.9801 22.0426 25.9665 21.9709 25.9635 21.9561L27.7828 21.5878C27.7851 21.5993 27.7759 21.5481 27.7533 21.4865C27.7299 21.4227 27.7043 21.3791 27.6964 21.3659C27.6926 21.3597 27.6912 21.3577 27.6941 21.3621C27.6969 21.3663 27.7018 21.3736 27.7102 21.3857C27.7275 21.4108 27.7513 21.4445 27.7877 21.4963L26.2705 22.5655ZM26.0789 22.252C25.9015 21.9587 25.4842 21.2069 24.3812 19.2198L26.0042 18.319C27.1227 20.334 27.5135 21.0372 27.6674 21.2919L26.0789 22.252ZM24.3811 19.2195C24.5314 19.4905 24.8735 19.5902 25.1465 19.4394L24.2488 17.8147C24.8743 17.469 25.6592 17.697 26.0043 18.3192L24.3811 19.2195ZM25.1508 19.437C25.2053 19.4065 25.2538 19.3595 25.2863 19.3054L23.6943 18.3509C23.8285 18.1271 24.0164 17.9447 24.2444 17.8171L25.1508 19.437ZM25.2862 19.3055C25.3527 19.1947 25.3572 19.0546 25.291 18.936L23.6703 19.8409C23.4096 19.374 23.422 18.8049 23.6944 18.3507L25.2862 19.3055ZM25.2921 18.9381L26.2561 20.6749L24.6331 21.5757L23.6692 19.8389L25.2921 18.9381ZM26.256 20.6747C26.5173 21.1452 26.4305 21.7329 26.0431 22.1076L24.7526 20.7734C24.5355 20.9834 24.4871 21.3127 24.6332 21.5759L26.256 20.6747ZM26.0444 22.1063C25.654 22.4855 25.0636 22.5463 24.6066 22.2744L25.5555 20.6791C25.3025 20.5286 24.9719 20.5605 24.7513 20.7747L26.0444 22.1063ZM24.6036 22.2726L19.9662 19.4906L20.9211 17.8989L25.5585 20.6809L24.6036 22.2726ZM19.9665 19.4908C20.0571 19.5451 20.1593 19.5609 20.2553 19.5437C20.3512 19.5265 20.475 19.4683 20.5648 19.3386L19.0388 18.2818C19.4856 17.6367 20.3349 17.5475 20.9208 17.8987L19.9665 19.4908ZM20.5647 19.3389C20.6371 19.2343 20.6651 19.0945 20.6325 18.9632L18.8311 19.4107C18.7335 19.018 18.8111 18.6105 19.039 18.2816L20.5647 19.3389ZM20.6322 18.9618C20.6018 18.8403 20.5232 18.7366 20.42 18.6747L19.4654 20.2666C19.15 20.0774 18.9215 19.7723 18.8314 19.412L20.6322 18.9618ZM20.3578 18.6406C20.4417 18.6825 20.5034 18.7292 20.5424 18.7623C20.5616 18.7785 20.5765 18.7924 20.5854 18.801C20.59 18.8054 20.5937 18.809 20.5959 18.8112C20.597 18.8123 20.5979 18.8132 20.5985 18.8138C20.5987 18.8141 20.599 18.8143 20.5991 18.8144C20.5992 18.8145 20.5992 18.8146 20.5993 18.8146C20.5993 18.8146 20.5993 18.8146 20.5993 18.8146C20.5993 18.8146 20.5993 18.8146 20.5993 18.8146C20.5993 18.8146 20.5993 18.8147 20.5993 18.8147C20.5996 18.815 20.5979 18.8133 20.596 18.8113C20.5938 18.8091 20.5902 18.8056 20.5856 18.8012C20.5767 18.7927 20.5619 18.7788 20.5428 18.7626C20.5039 18.7297 20.4423 18.6831 20.3587 18.6412L19.5284 20.3013C19.4445 20.2594 19.3829 20.2127 19.3438 20.1796C19.3246 20.1634 19.3097 20.1495 19.3008 20.1409C19.2962 20.1365 19.2926 20.1329 19.2904 20.1307C19.2892 20.1296 19.2883 20.1287 19.2878 20.1281C19.2875 20.1278 19.2872 20.1276 19.2871 20.1275C19.287 20.1274 19.287 20.1273 19.2869 20.1273C19.2869 20.1273 19.2869 20.1273 19.2869 20.1273C19.2869 20.1273 19.2869 20.1272 19.2869 20.1272C19.2869 20.1272 19.2869 20.1272 19.2869 20.1272C19.2866 20.1269 19.2883 20.1286 19.2903 20.1306C19.2924 20.1328 19.2961 20.1363 19.3006 20.1407C19.3095 20.1492 19.3243 20.1631 19.3434 20.1793C19.3823 20.2122 19.4439 20.2588 19.5276 20.3007L20.3578 18.6406ZM20.421 18.6754L23.453 20.4944L22.4981 22.0861L19.4661 20.2671L20.421 18.6754ZM23.4534 20.4946C24.0168 20.833 24.1991 21.5636 23.8612 22.1269L22.2694 21.1722C22.0804 21.4873 22.1823 21.8965 22.4978 22.0859L23.4534 20.4946ZM23.8607 22.1279C23.5231 22.6891 22.7934 22.8742 22.2283 22.535L23.1837 20.9436C22.8672 20.7536 22.4585 20.8576 22.2699 21.1713L23.8607 22.1279ZM22.2285 22.5352L18.5061 20.3021L19.461 18.7103L23.1834 20.9434L22.2285 22.5352ZM18.5064 20.3023C18.6106 20.3648 18.7392 20.3848 18.8605 20.3543L18.408 18.5541C18.768 18.4636 19.1452 18.5211 19.4607 18.7102L18.5064 20.3023ZM18.8587 20.3548C18.9793 20.3247 19.084 20.2464 19.1468 20.1414L17.5539 19.1885C17.7436 18.8713 18.0497 18.6434 18.4097 18.5537L18.8587 20.3548ZM19.1456 20.1434C19.2094 20.0374 19.2279 19.9092 19.1988 19.7915L17.3969 20.237C17.3088 19.8805 17.3641 19.5041 17.5551 19.1866L19.1456 20.1434ZM19.1982 19.7892C19.168 19.6683 19.09 19.5647 18.9865 19.5025L18.0307 21.0937C17.7154 20.9043 17.4874 20.599 17.3975 20.2394L19.1982 19.7892ZM18.9859 19.5022L19.7103 19.9366L18.7556 21.5285L18.0312 21.0941L18.9859 19.5022ZM19.7104 19.9367L22.7084 21.7354L21.7534 23.3271L18.7555 21.5284L19.7104 19.9367ZM22.7087 21.7356C23.2721 22.0739 23.4544 22.8045 23.1165 23.3679L21.5247 22.4132C21.3357 22.7283 21.4376 23.1375 21.7531 23.3269L22.7087 21.7356ZM23.116 23.3688C22.7779 23.931 22.0483 24.1142 21.4844 23.7764L22.4382 22.1841C22.1229 21.9952 21.7144 22.0977 21.5252 22.4123L23.116 23.3688ZM21.4838 23.7761L18.4511 21.9566L19.4061 20.3649L22.4388 22.1844L21.4838 23.7761ZM18.4502 21.9561C18.6731 22.0901 18.959 22.0167 19.0909 21.797L17.4996 20.8413C17.8939 20.1848 18.7479 19.969 19.407 20.3654L18.4502 21.9561ZM19.0909 21.797C19.1541 21.6917 19.1729 21.5638 19.1437 21.4459L17.3418 21.8914C17.2536 21.5347 17.3091 21.1585 17.4996 20.8413L19.0909 21.797ZM19.1432 21.4435C19.1127 21.3219 19.0342 21.2186 18.9319 21.1571L17.9754 22.7479C17.6609 22.5588 17.4325 22.2542 17.3424 21.8937L19.1432 21.4435ZM18.9311 21.1566L19.6747 21.6027L18.7198 23.1944L17.9762 22.7484L18.9311 21.1566ZM19.6747 21.6027L21.9638 22.9762L21.0089 24.5678L18.7197 23.1944L19.6747 21.6027ZM21.9642 22.9764C22.5276 23.3147 22.7099 24.0453 22.372 24.6087L20.7802 23.654C20.5912 23.969 20.6931 24.3782 21.0086 24.5677L21.9642 22.9764ZM22.3714 24.6096C22.0344 25.17 21.3046 25.357 20.7383 25.0163L21.6952 23.4258C21.3775 23.2346 20.9688 23.3403 20.7807 23.653L22.3714 24.6096ZM20.7393 25.0169L18.4501 23.6434L19.4051 22.0517L21.6942 23.4252L20.7393 25.0169ZM18.4505 23.6436C18.555 23.7063 18.6836 23.7259 18.8032 23.696L18.3531 21.8952C18.7127 21.8053 19.089 21.8623 19.4047 22.0515L18.4505 23.6436ZM18.8032 23.696C18.9226 23.6661 19.0269 23.5888 19.0901 23.4835L17.4984 22.5285C17.6885 22.2117 17.9948 21.9848 18.353 21.8952L18.8032 23.696ZM19.0904 23.4829C19.1528 23.3788 19.1722 23.2515 19.1427 23.1324L17.3409 23.5785C17.2524 23.2209 17.3088 22.845 17.4981 22.529L19.0904 23.4829ZM19.1422 23.1304C19.1118 23.0087 19.0332 22.9055 18.9309 22.8439L17.9745 24.4347C17.6599 24.2456 17.4315 23.941 17.3414 23.5805L19.1422 23.1304ZM18.9301 22.8435L23.5708 25.6274L22.6159 27.2191L17.9752 24.4352L18.9301 22.8435ZM23.5709 25.6274C24.1349 25.9658 24.7679 26.0734 25.3523 25.9542L25.7234 27.7729C24.6619 27.9895 23.558 27.7843 22.6159 27.2191L23.5709 25.6274ZM25.3522 25.9542C25.9262 25.837 26.3704 25.519 26.6361 25.076L28.2279 26.0308C27.6795 26.945 26.7783 27.5575 25.7235 27.7729L25.3522 25.9542ZM26.6362 25.0758C27.0908 24.3185 27.0301 23.5021 26.4635 22.8157L27.895 21.6341C28.9601 22.9244 29.0887 24.5967 28.2277 26.0311L26.6362 25.0758ZM27.2712 23.1484L27.2709 23.1484L27.087 21.3014L27.0873 21.3013L27.2712 23.1484Z" fill="#4CAF4F" mask="url(#path-4-inside-2_211_2338)"/>
</svg>
