<svg width="25" height="28" viewBox="0 0 25 28" fill="none" xmlns="http://www.w3.org/2000/svg">
<path d="M23.7674 26.3839V23.5996C23.7674 22.1228 23.1807 20.7064 22.1364 19.6621C21.0921 18.6178 19.6757 18.0311 18.1988 18.0311H16.8067C16.4375 18.0311 16.0834 17.8844 15.8223 17.6233C15.5612 17.3623 15.4146 17.0082 15.4146 16.6389V9.67824C15.4146 8.93981 15.1212 8.23161 14.5991 7.70946C14.0769 7.18731 13.3687 6.89396 12.6303 6.89396C11.8918 6.89396 11.1836 7.18731 10.6615 7.70946C10.1393 8.23161 9.846 8.93981 9.846 9.67824V22.2075L6.50486 17.7526C6.24552 17.4069 5.90922 17.1262 5.52261 16.9329C5.136 16.7396 4.70969 16.6389 4.27744 16.6389H3.67325C2.46905 16.6389 1.49316 17.6148 1.49316 18.819C1.49316 19.2144 1.60036 19.6028 1.80361 19.9411L5.66958 26.3839M12.6303 2.71755V1.32541V2.71755ZM20.9831 11.0704H22.3752H20.9831ZM2.8853 11.0704H4.27744H2.8853ZM6.14708 4.58719L5.16284 3.60295L6.14708 4.58719ZM19.1135 4.58719L20.0977 3.60295L19.1135 4.58719Z" fill="#4CAF4F"/>
<path d="M23.7674 26.3839V23.5996C23.7674 22.1228 23.1807 20.7064 22.1364 19.6621C21.0921 18.6178 19.6757 18.0311 18.1988 18.0311H16.8067C16.4375 18.0311 16.0834 17.8844 15.8223 17.6233C15.5612 17.3623 15.4146 17.0082 15.4146 16.6389V9.67824C15.4146 8.93981 15.1212 8.23161 14.5991 7.70946C14.0769 7.18731 13.3687 6.89396 12.6303 6.89396V6.89396C11.8918 6.89396 11.1836 7.18731 10.6615 7.70946C10.1393 8.23161 9.846 8.93981 9.846 9.67824V22.2075L6.50486 17.7526C6.24552 17.4069 5.90922 17.1262 5.52261 16.9329C5.136 16.7396 4.70969 16.6389 4.27744 16.6389H3.67325C2.46905 16.6389 1.49316 17.6148 1.49316 18.819C1.49316 19.2144 1.60036 19.6028 1.80361 19.9411L5.66958 26.3839M12.6303 2.71755V1.32541M20.9831 11.0704H22.3752M2.8853 11.0704H4.27744M6.14708 4.58719L5.16284 3.60295M19.1135 4.58719L20.0977 3.60295" stroke="#4CAF4F" stroke-width="1.39214" stroke-linecap="round" stroke-linejoin="round"/>
</svg>
