<svg width="34" height="34" viewBox="0 0 34 34" fill="none" xmlns="http://www.w3.org/2000/svg">
<path d="M7.09082 5.71716H26.9287C28.0824 5.71716 29.189 6.17588 30.0049 6.99158C30.8207 7.80739 31.2792 8.91402 31.2793 10.0677V23.641C31.2793 24.7948 30.8207 25.9013 30.0049 26.7172C29.189 27.533 28.0825 27.9916 26.9287 27.9916H7.09082C5.9371 27.9915 4.83046 27.533 4.01465 26.7172C3.19896 25.9013 2.74023 24.7947 2.74023 23.641V10.0677C2.74029 8.91402 3.19884 7.80739 4.01465 6.99158C4.83046 6.17577 5.9371 5.71722 7.09082 5.71716ZM4.13281 23.641C4.13281 24.4254 4.44441 25.178 4.99902 25.7328C5.55376 26.2875 6.30631 26.5999 7.09082 26.6H26.9287C27.7133 26.6 28.4657 26.2876 29.0205 25.7328C29.5753 25.178 29.8877 24.4256 29.8877 23.641V13.3744H4.13281V23.641ZM22.2305 20.3353H25.3633C25.5477 20.3354 25.725 20.408 25.8555 20.5385C25.9859 20.6689 26.0585 20.8462 26.0586 21.0306C26.0586 21.2151 25.9857 21.3923 25.8555 21.5228C25.725 21.6533 25.5477 21.7268 25.3633 21.7269H22.2305C22.0459 21.7269 21.8688 21.6533 21.7383 21.5228C21.6079 21.3923 21.5342 21.2151 21.5342 21.0306C21.5343 20.8462 21.6078 20.6689 21.7383 20.5385C21.8688 20.408 22.046 20.3354 22.2305 20.3353ZM7.09082 7.10974C6.30631 7.1098 5.55376 7.42122 4.99902 7.97595C4.44429 8.53069 4.13287 9.28324 4.13281 10.0677V11.9818H29.8877V10.0677C29.8876 9.28324 29.5752 8.53069 29.0205 7.97595C28.4657 7.42133 27.7132 7.10974 26.9287 7.10974H7.09082Z" fill="#4CAF4F" stroke="#4CAF4F" stroke-width="0.696069"/>
</svg>
