<svg width="134" height="22" viewBox="0 0 134 22" fill="none" xmlns="http://www.w3.org/2000/svg">
<path d="M17.0185 12.0322L12.3793 19.9777L7.74004 12.0322H17.0185ZM18.2614 11.322H6.49219L12.3793 21.3831L18.2614 11.322Z" fill="white"/>
<path d="M25.0841 2.14975L29.7234 10.0953H20.4449L25.0841 2.14975ZM25.0841 0.729492L19.197 10.7905H30.9712L25.0841 0.729492Z" fill="white"/>
<path d="M0.851562 0.729492L5.78769 9.62848L11.1817 0.952948L0.851562 0.729492Z" fill="#4CAF4F"/>
<path d="M12.3793 1.50903L17.557 10.3584H7.19165L12.3793 1.50903Z" fill="#4CAF4F"/>
<path d="M18.8902 12.2904L24.0728 21.3831H13.4609L18.7291 12.2904H18.8902Z" fill="#4CAF4F"/>
<path d="M20.0122 11.7391L25.0842 20.6927L30.2266 11.7391H20.0122Z" fill="#4CAF4F"/>
<path d="M52.5135 2.16577V19.69H49.3132L41.6891 8.66036H41.5608V19.69H37.8557V2.16577H41.1073L48.6715 13.1869H48.8255V2.16577H52.5135Z" fill="white"/>
<path d="M61.4959 19.9467C60.144 19.9467 58.9802 19.6729 58.0048 19.1253C57.035 18.5719 56.2877 17.7904 55.7629 16.7807C55.2381 15.7653 54.9757 14.5645 54.9757 13.1783C54.9757 11.8264 55.2381 10.6398 55.7629 9.61872C56.2877 8.59761 57.0264 7.80183 57.9791 7.23138C58.9375 6.66093 60.0612 6.3757 61.3505 6.3757C62.2175 6.3757 63.0247 6.51546 63.772 6.79498C64.525 7.0688 65.181 7.48238 65.7401 8.03572C66.3048 8.58905 66.7441 9.285 67.0578 10.1236C67.3716 10.9564 67.5284 11.9319 67.5284 13.05V14.0511H56.4303V11.7921H64.0972C64.0972 11.2673 63.9831 10.8024 63.7549 10.3974C63.5267 9.99236 63.2101 9.67576 62.8051 9.44758C62.4058 9.2137 61.9409 9.09676 61.4104 9.09676C60.857 9.09676 60.3664 9.22511 59.9386 9.48181C59.5165 9.73281 59.1856 10.0722 58.946 10.5001C58.7064 10.9222 58.5838 11.3928 58.5781 11.9119V14.0597C58.5781 14.71 58.6979 15.2719 58.9375 15.7454C59.1827 16.2188 59.5279 16.5839 59.9728 16.8406C60.4178 17.0973 60.9454 17.2257 61.5558 17.2257C61.9608 17.2257 62.3316 17.1686 62.6682 17.0545C63.0048 16.9405 63.2928 16.7693 63.5324 16.5411C63.772 16.313 63.9546 16.0334 64.0801 15.7026L67.4514 15.9251C67.2803 16.7351 66.9295 17.4425 66.399 18.0471C65.8741 18.6461 65.1953 19.1139 64.3624 19.4504C63.5353 19.7813 62.5798 19.9467 61.4959 19.9467Z" fill="white"/>
<path d="M72.7181 6.54684L75.1311 11.1418L77.604 6.54684H81.3434L77.5356 13.1184L81.446 19.69H77.7238L75.1311 15.1464L72.5812 19.69H68.8162L72.7181 13.1184L68.9532 6.54684H72.7181Z" fill="white"/>
<path d="M88.976 19.9467C87.6297 19.9467 86.4717 19.6615 85.5019 19.0911C84.5379 18.5149 83.7963 17.7163 83.2772 16.6952C82.7638 15.6741 82.5071 14.4989 82.5071 13.1698C82.5071 11.8235 82.7666 10.6427 83.2857 9.62727C83.8106 8.60617 84.555 7.81039 85.5191 7.23993C86.4831 6.66378 87.6297 6.3757 88.9589 6.3757C90.1055 6.3757 91.1095 6.58392 91.9709 7.00035C92.8322 7.41678 93.5139 8.00149 94.0159 8.75448C94.5179 9.50748 94.7946 10.3917 94.8459 11.4071H91.4061C91.3091 10.7511 91.0524 10.2234 90.636 9.82408C90.2253 9.41906 89.6862 9.21655 89.0188 9.21655C88.454 9.21655 87.9606 9.37057 87.5385 9.67861C87.122 9.98095 86.7969 10.4231 86.563 11.0049C86.3291 11.5868 86.2122 12.2913 86.2122 13.1184C86.2122 13.957 86.3262 14.6701 86.5544 15.2576C86.7883 15.8452 87.1163 16.293 87.5385 16.601C87.9606 16.9091 88.454 17.0631 89.0188 17.0631C89.4352 17.0631 89.8089 16.9775 90.1397 16.8064C90.4763 16.6353 90.7529 16.3871 90.9697 16.062C91.1922 15.7311 91.3377 15.3346 91.4061 14.8726H94.8459C94.7889 15.8766 94.5151 16.7608 94.0245 17.5252C93.5396 18.2839 92.8693 18.8771 92.0136 19.305C91.158 19.7328 90.1454 19.9467 88.976 19.9467Z" fill="white"/>
<path d="M103.17 19.9467C101.818 19.9467 100.654 19.6729 99.6784 19.1253C98.7086 18.5719 97.9613 17.7904 97.4365 16.7807C96.9117 15.7653 96.6493 14.5645 96.6493 13.1783C96.6493 11.8264 96.9117 10.6398 97.4365 9.61872C97.9613 8.59761 98.7 7.80183 99.6527 7.23138C100.611 6.66093 101.735 6.3757 103.024 6.3757C103.891 6.3757 104.698 6.51546 105.446 6.79498C106.199 7.0688 106.855 7.48238 107.414 8.03572C107.978 8.58905 108.418 9.285 108.731 10.1236C109.045 10.9564 109.202 11.9319 109.202 13.05V14.0511H98.1039V11.7921H105.771C105.771 11.2673 105.657 10.8024 105.429 10.3974C105.2 9.99236 104.884 9.67576 104.479 9.44758C104.079 9.2137 103.614 9.09676 103.084 9.09676C102.531 9.09676 102.04 9.22511 101.612 9.48181C101.19 9.73281 100.859 10.0722 100.62 10.5001C100.38 10.9222 100.257 11.3928 100.252 11.9119V14.0597C100.252 14.71 100.371 15.2719 100.611 15.7454C100.856 16.2188 101.201 16.5839 101.646 16.8406C102.091 17.0973 102.619 17.2257 103.229 17.2257C103.634 17.2257 104.005 17.1686 104.342 17.0545C104.678 16.9405 104.966 16.7693 105.206 16.5411C105.446 16.313 105.628 16.0334 105.754 15.7026L109.125 15.9251C108.954 16.7351 108.603 17.4425 108.073 18.0471C107.548 18.6461 106.869 19.1139 106.036 19.4504C105.209 19.7813 104.253 19.9467 103.17 19.9467Z" fill="white"/>
<path d="M115.226 12.0916V19.69H111.581V6.54684H115.055V8.86572H115.209C115.5 8.10132 115.988 7.49664 116.672 7.05169C117.357 6.60103 118.187 6.3757 119.162 6.3757C120.075 6.3757 120.871 6.57536 121.549 6.97468C122.228 7.37399 122.756 7.94444 123.132 8.68603C123.509 9.42191 123.697 10.3004 123.697 11.3215V19.69H120.052V11.9718C120.058 11.1675 119.852 10.54 119.436 10.0893C119.02 9.63298 118.446 9.4048 117.716 9.4048C117.225 9.4048 116.792 9.51033 116.415 9.7214C116.045 9.93247 115.754 10.2405 115.543 10.6455C115.337 11.0448 115.232 11.5269 115.226 12.0916Z" fill="white"/>
<path d="M133.561 6.54684V9.285H125.646V6.54684H133.561ZM127.443 3.39795H131.088V15.6512C131.088 15.9878 131.139 16.2502 131.242 16.4385C131.345 16.621 131.487 16.7494 131.67 16.8235C131.858 16.8977 132.075 16.9348 132.32 16.9348C132.491 16.9348 132.663 16.9205 132.834 16.892C133.005 16.8577 133.136 16.8321 133.227 16.815L133.801 19.5275C133.618 19.5845 133.361 19.6501 133.031 19.7243C132.7 19.8041 132.297 19.8526 131.824 19.8697C130.946 19.904 130.175 19.787 129.514 19.5189C128.858 19.2508 128.347 18.8344 127.982 18.2696C127.617 17.7049 127.437 16.9918 127.443 16.1304V3.39795Z" fill="white"/>
</svg>
