<svg width="12" height="13" viewBox="0 0 12 13" fill="none" xmlns="http://www.w3.org/2000/svg">
<path fill-rule="evenodd" clip-rule="evenodd" d="M5.98893 0.834473C4.37577 0.834473 4.17332 0.841526 3.53973 0.870359C2.90739 0.899316 2.47576 0.999427 2.09808 1.14632C1.70741 1.29803 1.37602 1.50097 1.04586 1.83125C0.715456 2.16141 0.512511 2.49281 0.360303 2.88335C0.213044 3.26115 0.112809 3.6929 0.0843469 4.325C0.0560088 4.95859 0.048584 5.16116 0.048584 6.77433C0.048584 8.38749 0.0557613 8.58932 0.0844706 9.22291C0.113551 9.85525 0.213662 10.2869 0.360426 10.6646C0.512264 11.0552 0.715209 11.3866 1.04549 11.7168C1.37552 12.0472 1.70692 12.2506 2.09734 12.4023C2.47526 12.5492 2.90702 12.6493 3.53924 12.6783C4.17282 12.7071 4.37515 12.7142 5.98819 12.7142C7.60148 12.7142 7.80331 12.7071 8.4369 12.6783C9.06924 12.6493 9.50137 12.5492 9.87929 12.4023C10.2698 12.2506 10.6007 12.0472 10.9308 11.7168C11.2612 11.3866 11.4641 11.0552 11.6163 10.6647C11.7623 10.2869 11.8626 9.85513 11.8923 9.22303C11.9207 8.58945 11.9282 8.38749 11.9282 6.77433C11.9282 5.16116 11.9207 4.95871 11.8923 4.32513C11.8626 3.69278 11.7623 3.26115 11.6163 2.88348C11.4641 2.49281 11.2612 2.16141 10.9308 1.83125C10.6004 1.50085 10.27 1.29791 9.87892 1.14632C9.50025 0.999427 9.06838 0.899316 8.43603 0.870359C7.80245 0.841526 7.60074 0.834473 5.98708 0.834473H5.98893ZM5.45605 1.90487C5.6142 1.90462 5.79067 1.90487 5.98891 1.90487C7.57485 1.90487 7.76282 1.91056 8.3891 1.93902C8.96824 1.9655 9.28256 2.06227 9.49194 2.14358C9.76913 2.25124 9.96675 2.37993 10.1745 2.58783C10.3824 2.79572 10.5111 2.99372 10.619 3.27091C10.7003 3.48004 10.7972 3.79436 10.8236 4.3735C10.852 4.99966 10.8582 5.18775 10.8582 6.77295C10.8582 8.35815 10.852 8.54624 10.8236 9.1724C10.7971 9.75154 10.7003 10.0659 10.619 10.275C10.5114 10.5522 10.3824 10.7496 10.1745 10.9573C9.96663 11.1652 9.76925 11.2939 9.49194 11.4016C9.2828 11.4833 8.96824 11.5798 8.3891 11.6063C7.76294 11.6347 7.57485 11.6409 5.98891 11.6409C4.40284 11.6409 4.21487 11.6347 3.58871 11.6063C3.00958 11.5795 2.69526 11.4828 2.48576 11.4015C2.20856 11.2938 2.01057 11.1651 1.80267 10.9572C1.59478 10.7493 1.46608 10.5518 1.35817 10.2745C1.27687 10.0654 1.17998 9.75104 1.15362 9.17191C1.12516 8.54575 1.11946 8.35765 1.11946 6.77146C1.11946 5.18528 1.12516 4.99817 1.15362 4.37201C1.1801 3.79287 1.27687 3.47856 1.35817 3.26918C1.46583 2.99198 1.59478 2.79399 1.80267 2.58609C2.01057 2.3782 2.20856 2.2495 2.48576 2.1416C2.69514 2.05992 3.00958 1.9634 3.58871 1.93679C4.13666 1.91204 4.34901 1.90462 5.45605 1.90338V1.90487ZM9.15956 2.89113C8.76604 2.89113 8.44677 3.21003 8.44677 3.60367C8.44677 3.99718 8.76604 4.31645 9.15956 4.31645C9.55307 4.31645 9.87234 3.99718 9.87234 3.60367C9.87234 3.21015 9.55307 2.89113 9.15956 2.89113ZM5.98894 3.72395C4.30438 3.72395 2.93858 5.08974 2.93858 6.77431C2.93858 8.45888 4.30438 9.82405 5.98894 9.82405C7.67351 9.82405 9.03881 8.45888 9.03881 6.77431C9.03881 5.08974 7.67351 3.72395 5.98894 3.72395ZM5.98892 4.79436C7.08235 4.79436 7.96887 5.68076 7.96887 6.77431C7.96887 7.86774 7.08235 8.75426 5.98892 8.75426C4.89537 8.75426 4.00897 7.86774 4.00897 6.77431C4.00897 5.68076 4.89537 4.79436 5.98892 4.79436Z" fill="white"/>
</svg>
