<svg width="13" height="13" viewBox="0 0 13 13" fill="none" xmlns="http://www.w3.org/2000/svg">
<path fill-rule="evenodd" clip-rule="evenodd" d="M12.3395 6.76603C12.3395 7.16773 12.2987 7.56887 12.2183 7.95988C12.14 8.34161 12.024 8.71638 11.872 9.07464C11.7235 9.42656 11.5393 9.76569 11.3241 10.082C11.1121 10.3962 10.8679 10.6911 10.5996 10.9598C10.3307 11.2274 10.0349 11.471 9.72076 11.6839C9.40346 11.8976 9.06384 12.0815 8.71171 12.2307C8.35293 12.3819 7.9773 12.4977 7.5959 12.5759C7.20437 12.6565 6.80176 12.6976 6.39949 12.6976C5.99691 12.6976 5.59433 12.6565 5.20335 12.5759C4.82137 12.4977 4.44576 12.3819 4.08726 12.2307C3.73516 12.0815 3.39521 11.8976 3.07791 11.6839C2.76379 11.471 2.46795 11.2274 2.19966 10.9598C1.93108 10.6911 1.68685 10.3962 1.47455 10.082C1.26049 9.76569 1.07601 9.42654 0.926939 9.07464C0.774938 8.71638 0.658646 8.34159 0.580042 7.95988C0.500577 7.56887 0.459961 7.16773 0.459961 6.76603C0.459961 6.36403 0.500554 5.96203 0.580065 5.57188C0.65867 5.19015 0.774961 4.8148 0.926963 4.45712C1.07603 4.10494 1.26052 3.76551 1.47457 3.44922C1.68688 3.1347 1.93111 2.84042 2.19968 2.57136C2.46797 2.30373 2.76382 2.06076 3.07793 1.84817C3.39523 1.63355 3.73518 1.44966 4.08729 1.3002C4.44578 1.14869 4.82137 1.03257 5.20337 0.954961C5.59435 0.87503 5.99693 0.834473 6.39951 0.834473C6.80179 0.834473 7.20437 0.87503 7.59592 0.954961C7.97732 1.03259 8.35293 1.14872 8.71173 1.3002C9.06384 1.44963 9.40348 1.63355 9.72079 1.84817C10.0349 2.06076 10.3308 2.30373 10.5996 2.57136C10.8679 2.84042 11.1121 3.1347 11.3241 3.44922C11.5393 3.76551 11.7235 4.10497 11.872 4.45712C12.024 4.8148 12.14 5.19015 12.2183 5.57188C12.2987 5.96203 12.3395 6.36403 12.3395 6.76603ZM4.23515 2.18442C2.82059 2.85144 1.76484 4.15301 1.43563 5.72163C1.56936 5.72279 3.6832 5.74944 6.11869 5.10326C5.24074 3.54565 4.30274 2.27451 4.23515 2.18442ZM6.53896 5.88326C3.92713 6.66406 1.42084 6.60788 1.33094 6.60442C1.32947 6.65886 1.32687 6.71156 1.32687 6.76603C1.32687 8.06729 1.81849 9.2536 2.62656 10.1506C2.62481 10.148 4.01298 7.68877 6.75041 6.80484C6.81653 6.78283 6.88383 6.76312 6.95053 6.74402C6.82322 6.45615 6.68426 6.16767 6.53896 5.88326ZM9.74948 2.96439C8.85642 2.17804 7.68379 1.70105 6.39947 1.70105C5.98731 1.70105 5.58734 1.75087 5.20419 1.84297C5.28017 1.94493 6.23298 3.20711 7.10049 4.79771C9.01451 4.08119 9.737 2.98291 9.74948 2.96439ZM7.29631 7.58335C7.28501 7.58709 7.27371 7.59031 7.26267 7.59435C4.26975 8.63622 3.29238 10.7359 3.2818 10.7588C4.14296 11.4275 5.22308 11.831 6.3995 11.831C7.10197 11.831 7.7711 11.6882 8.3799 11.4296C8.30478 10.987 8.0101 9.4358 7.29631 7.58335ZM9.23407 10.9668C10.3731 10.1993 11.182 8.98052 11.4076 7.56884C11.3032 7.53525 9.88404 7.08661 8.24673 7.34874C8.9121 9.17456 9.18243 10.6615 9.23407 10.9668ZM7.49094 5.55249C7.60867 5.79404 7.72268 6.03989 7.82795 6.28697C7.86538 6.37561 7.90193 6.46251 7.9376 6.54938C9.68017 6.33041 11.3969 6.69882 11.4703 6.71386C11.4587 5.51309 11.0286 4.41105 10.3168 3.54828C10.3073 3.56186 9.49369 4.73572 7.49094 5.55249Z" fill="white"/>
</svg>
