<svg width="12" height="13" viewBox="0 0 12 13" fill="none" xmlns="http://www.w3.org/2000/svg">
<path fill-rule="evenodd" clip-rule="evenodd" d="M11.4608 0.766934C11.6026 0.908743 11.6506 1.11925 11.5844 1.30854L7.93002 11.7496C7.8593 11.9516 7.67243 12.09 7.45855 12.0987C7.24468 12.1075 7.04715 11.9848 6.96021 11.7891L4.95355 7.27416L0.438569 5.2675C0.242967 5.18057 0.120251 4.98304 0.128977 4.76916C0.137702 4.55529 0.2761 4.36841 0.478135 4.2977L10.9192 0.643337C11.1085 0.577086 11.319 0.625125 11.4608 0.766934ZM5.97174 6.99427L7.37953 10.1618L9.84316 3.12285L5.97174 6.99427ZM9.10487 2.38455L2.06592 4.84819L5.23345 6.25598L9.10487 2.38455Z" fill="white"/>
</svg>
